Coordinates
version=1
nRows=34
nColumns=19
inDegrees=yes

Units are S.I. units (second, meters, Newtons, ...)
If the header above contains a line with 'inDegrees', this indicates whether rotational values are in degrees (yes) or radians (no).

endheader
time	pelvis_obliquity	pelvis_rotation	pelvis_tilt	pelvis_to_ground_tx	pelvis_to_ground_ty	pelvis_to_ground_tz	left_hip_abduction	left_hip_rotation	left_hip_flexion	left_knee_flexion	left_ankle_flexion	left_subtalar_angle	right_hip_abduction	right_hip_rotation	right_hip_flexion	right_knee_flexion	right_ankle_flexion	right_subtalar_angle
      0.40000000	     88.52368307	     27.59521596	    -12.06223883	     -2.53788763	     -0.63647333	      0.58605882	      0.19239066	    -20.60264026	     12.68600128	    -34.21646506	    -22.64849858	     -7.75760582	      0.09791778	      9.11336570	     39.21728266	    -27.63368106	     -0.23215838	    -11.98929351
      0.41000000	     88.63543441	     26.74297878	    -12.61395573	     -2.52696800	     -0.63795912	      0.59139946	      0.68370374	    -19.44040487	     15.15434919	    -35.02688011	    -22.00809396	     -9.01738230	      0.53019154	     10.11336542	     37.30575816	    -24.49599266	     -1.36085415	    -12.24769887
      0.42000000	     88.77524839	     25.85990668	    -12.95045274	     -2.51605079	     -0.63935513	      0.59643438	      0.99222231	    -18.36409697	     17.27636949	    -35.75584962	    -21.48666476	    -10.26437358	      0.91913697	     11.22038751	     35.10093494	    -21.25107877	     -2.57876470	    -12.53564373
      0.43000000	     88.88587529	     24.97860175	    -13.09325799	     -2.50525972	     -0.64068550	      0.60095318	      1.23140896	    -17.24391153	     19.26305925	    -36.59149461	    -21.03046082	    -11.53734687	      1.39901674	     12.10918387	     32.76002119	    -18.10756362	     -3.89530156	    -12.92179528
      0.44000000	     89.03829916	     24.01834470	    -13.10895821	     -2.49463968	     -0.64186513	      0.60497377	      1.31126356	    -16.21586409	     21.09629977	    -37.45583331	    -20.56256522	    -12.63277189	      1.82237553	     12.99189217	     30.33508847	    -15.07216276	     -5.08070839	    -13.14979303
      0.45000000	     89.19262990	     22.97367062	    -13.01345775	     -2.48424470	     -0.64290001	      0.60841937	      1.29898842	    -15.23779367	     22.87327932	    -38.40532485	    -20.07180285	    -13.55721752	      2.23347614	     13.79055750	     27.91988459	    -12.25809497	     -6.17084195	    -13.26585242
      0.46000000	     89.33560516	     21.79542511	    -12.83829167	     -2.47410133	     -0.64376827	      0.61126221	      1.21686152	    -14.24713355	     24.65156580	    -39.44083143	    -19.81284042	    -13.97872917	      2.62191439	     14.51957622	     25.60405322	     -9.76497791	     -6.52131371	    -13.02186751
      0.47000000	     89.40857933	     20.59911746	    -12.58447114	     -2.46417522	     -0.64452440	      0.61351918	      1.18492605	    -13.45921086	     26.46077785	    -40.54379208	    -19.03706429	    -14.80308770	      3.05763761	     15.15967614	     23.35797221	     -7.50281772	     -7.92991564	    -13.10745140
      0.48000000	     89.43326845	     19.24268925	    -12.29912525	     -2.45447741	     -0.64511771	      0.61519314	      1.16138505	    -12.63732970	     28.32622921	    -41.67112355	    -18.79926761	    -15.03687666	      3.46968627	     15.84182856	     21.29118237	     -5.60911514	     -8.21176260	    -12.84578643
      0.49000000	     89.34553822	     17.86160458	    -11.97787389	     -2.44493609	     -0.64561443	      0.61629018	      1.27393370	    -11.95644303	     30.26417405	    -42.79766014	    -18.13256079	    -15.31384977	      3.96437583	     16.47745703	     19.35501496	     -3.99104778	     -9.17597563	    -12.78651296
      0.50000000	     89.19232483	     16.37169578	    -11.66256065	     -2.43552611	     -0.64597147	      0.61686458	      1.46829652	    -11.31395257	     32.24375442	    -43.82791551	    -17.95755789	    -15.37285159	      4.46882301	     17.15934987	     17.59803052	     -2.71064604	     -9.28570112	    -12.50544585
      0.51000000	     88.92618501	     14.89116204	    -11.33045455	     -2.42616454	     -0.64625436	      0.61693289	      1.83945056	    -10.83761061	     34.23157819	    -44.71431954	    -17.38026584	    -15.28768389	      5.07511270	     17.88280968	     15.91770218	     -1.62609903	     -9.89420879	    -12.42140085
      0.52000000	     88.60776351	     13.37676507	    -11.04301560	     -2.41681517	     -0.64642231	      0.61655671	      2.32502849	    -10.46793044	     36.21223904	    -45.36751027	    -17.26971846	    -15.24608427	      5.71091548	     18.58715558	     14.39686468	     -0.83407222	     -9.88021033	    -12.20706006
      0.53000000	     88.20995719	     11.87923973	    -10.76965197	     -2.40740633	     -0.64652505	      0.61576180	      2.97074855	    -10.23782174	     38.11443247	    -45.72747211	    -17.12489184	    -15.18366916	      6.43029152	     19.27463614	     12.95759079	     -0.25983154	     -9.89042928	    -12.04574954
      0.54000000	     87.77055149	     10.45240929	    -10.53289198	     -2.39786257	     -0.64655831	      0.61460735	      3.74853067	    -10.21692287	     39.89749956	    -45.73132541	    -16.97426585	    -15.08775992	      7.20641935	     19.96399377	     11.55952665	      0.18376328	     -9.88534037	    -11.96627392
      0.55000000	     87.30310313	      9.12772755	    -10.33183073	     -2.38814649	     -0.64654686	      0.61314054	      4.65865358	    -10.46104564	     41.50042648	    -45.32213672	    -16.80259857	    -14.94260992	      8.03097370	     20.64941945	     10.19172393	      0.51166060	     -9.89459736	    -12.05395070
      0.56000000	     86.80364590	      7.85319804	    -10.17614416	     -2.37821494	     -0.64649342	      0.61138436	      5.65595732	    -10.78639276	     42.90947700	    -44.51507496	    -16.78572905	    -14.90106216	      8.88271963	     21.22266838	      8.91873848	      0.62796079	     -9.78935922	    -12.05630522
      0.57000000	     86.30512850	      6.71469535	    -10.04629184	     -2.36799866	     -0.64641826	      0.60939288	      6.72128829	    -11.35795063	     44.05133632	    -43.29474021	    -16.81317417	    -14.91809159	      9.75286373	     21.75488356	      7.64069659	      0.69117800	     -9.65621569	    -12.08544914
      0.58000000	     85.81279676	      5.70096797	     -9.93190795	     -2.35747327	     -0.64633974	      0.60719099	      7.81380825	    -12.12015321	     44.90018621	    -41.71423620	    -16.89785637	    -15.02358241	     10.62505039	     22.22837574	      6.38344263	      0.65530206	     -9.52748944	    -12.12165987
      0.59000000	     85.33083598	      4.81240127	     -9.81557233	     -2.34661040	     -0.64627782	      0.60480161	      8.88250148	    -13.02241305	     45.44034696	    -39.86281460	    -17.05285013	    -15.25466518	     11.49277524	     22.63518480	      5.14665881	      0.51446584	     -9.42966536	    -12.13186808
      0.60000000	     84.86796071	      4.06006768	     -9.69196586	     -2.33539713	     -0.64625624	      0.60224698	      9.86952202	    -14.02147522	     45.68820164	    -37.86072914	    -17.28035151	    -15.63908049	     12.34313657	     22.95690618	      3.94936024	      0.25821925	     -9.39253377	    -12.07950860
      0.61000000	     84.45082543	      3.44399961	     -9.55123772	     -2.32382448	     -0.64629776	      0.59956307	     10.69080051	    -15.05725661	     45.65469895	    -35.83222094	    -17.55135396	    -16.15516706	     13.14690532	     23.17779683	      2.80463052	     -0.12424862	     -9.43994016	    -11.93448195
      0.62000000	     84.08871020	      2.97184434	     -9.40436288	     -2.31193405	     -0.64641169	      0.59677691	     11.29000267	    -16.06535693	     45.40315327	    -33.93396924	    -17.86323556	    -16.86442334	     13.87867828	     23.26666955	      1.77069371	     -0.67077731	     -9.61888818	    -11.68546158
      0.63000000	     83.83718081	      2.65263849	     -9.28673295	     -2.29975689	     -0.64660304	      0.59395629	     11.58592120	    -16.99467210	     44.99750921	    -32.26368699	    -18.08890204	    -17.55112954	     14.46334253	     23.22306961	      0.92103303	     -1.41021694	     -9.90984456	    -11.36768180
      0.64000000	     83.74434778	      2.47444696	     -9.18592715	     -2.28733247	     -0.64685579	      0.59116874	     11.50666050	    -17.78779135	     44.44299970	    -30.89756908	    -18.19674272	    -18.20043127	     14.85331006	     23.04757165	      0.26469263	     -2.35772731	    -10.33245291	    -10.99335021
      0.65000000	     83.84374966	      2.39032483	     -9.13683597	     -2.27472358	     -0.64714282	      0.58848862	     11.00876870	    -18.29999511	     43.79439661	    -29.88659059	    -18.21942241	    -19.07909399	     14.99381132	     22.80017530	     -0.14182267	     -3.53889116	    -10.98530809	    -10.37040907
      0.66000000	     84.13081668	      2.54093294	     -9.03938734	     -2.26199479	     -0.64750325	      0.58593639	     10.19874718	    -18.78706006	     42.99299459	    -29.21259421	    -18.04568731	    -19.36107651	     14.93387329	     22.21724445	     -0.35346332	     -4.97033522	    -11.57648594	    -10.13373388
      0.67000000	     84.64833736	      2.80798858	     -9.01378642	     -2.24921355	     -0.64784154	      0.58361868	      9.08039826	    -19.06767050	     42.14222425	    -28.81459750	    -17.54460540	    -19.72110976	     14.56591260	     21.46238370	     -0.25555044	     -6.65886532	    -12.58207963	     -9.36693342
      0.68000000	     85.41060680	      3.25802668	     -9.00729854	     -2.23645291	     -0.64814693	      0.58158305	      7.75595099	    -19.35186770	     41.18290813	    -28.56415582	    -16.96185597	    -19.69763938	     13.88487026	     20.36562532	      0.13225490	     -8.64110490	    -13.56493233	     -8.86803818
      0.69000000	     86.33948124	      3.85316890	     -8.97002005	     -2.22380475	     -0.64840972	      0.57982904	      6.30775485	    -19.52644534	     40.09583649	    -28.43310983	    -16.46106718	    -19.51726917	     12.97363703	     18.90943952	      0.77498596	    -10.97018145	    -14.49366507	     -8.71285926
      0.70000000	     87.54055884	      4.56775324	     -9.12880318	     -2.21130722	     -0.64850551	      0.57853604	      4.82054626	    -19.82616837	     39.02040270	    -28.12867284	    -15.44425020	    -18.75858434	     11.66193737	     17.21758349	      1.82591254	    -13.52379963	    -15.76098466	     -7.86302992
      0.71000000	     88.84317678	      5.35773560	     -9.24369991	     -2.19903684	     -0.64847765	      0.57758240	      3.29761879	    -19.96078605	     37.80046404	    -27.76434398	    -14.46646679	    -17.55188466	     10.18130154	     15.19937557	      3.06978967	    -16.40281139	    -16.76202030	     -7.32557448
      0.72000000	     90.27843184	      6.27979485	     -9.36919431	     -2.18703685	     -0.64827376	      0.57708791	      1.86001348	    -20.37615434	     36.40376559	    -27.10170539	    -14.03611739	    -16.96951675	      8.53014940	     12.95416274	      4.47121428	    -19.46294623	    -17.48797935	     -7.57406215
      0.73000000	     91.80268810	      7.17990281	     -9.73976360	     -2.17535096	     -0.64786033	      0.57708510	      0.48468034	    -20.68824126	     35.10740879	    -26.13989883	    -12.98109519	    -14.93369217	      6.68539418	     10.68524520	      6.25718498	    -22.69133039	    -18.37060459	     -7.03110054
